<svg xml:space="preserve" width="500" height="114.921" xmlns="http://www.w3.org/2000/svg"><path d="M0 57.431 57.432 0l57.374 57.489h-32.71L57.374 32.826 32.711 57.49l24.72 24.663V57.49h24.664v33.056l-24.664 24.376L0 57.431" style="fill:#231f20;fill-opacity:1;fill-rule:nonzero;stroke:none;stroke-width:.066118"/><path d="M181.704 62.097c-.187 1.474-.296 2.363-.7 3.852a21.238 21.238 0 0 1-1.637 4.172 20.056 20.056 0 0 1-2.67 3.893 23.753 23.753 0 0 1-8.645 6.545 27.073 27.073 0 0 1-10.922 2.192 25.655 25.655 0 0 1-7.056-.95 26.534 26.534 0 0 1-6.354-2.797 25.23 25.23 0 0 1-5.24-4.155 26.764 26.764 0 0 1-3.995-5.317 25.473 25.473 0 0 1-2.554-6.233 25.918 25.918 0 0 1-.9-6.854 27.413 27.413 0 0 1 3.504-13.464 25.577 25.577 0 0 1 9.333-9.538 26.593 26.593 0 0 1 6.402-2.666 27.085 27.085 0 0 1 7.172-.95 28.634 28.634 0 0 1 7.008.835 26.522 26.522 0 0 1 6.205 2.405 25.867 25.867 0 0 1 5.306 3.86 28.47 28.47 0 0 1 4.306 5.203l-4.47 2.65a23.564 23.564 0 0 0-7.876-7.509 20.978 20.978 0 0 0-10.676-2.667 19.097 19.097 0 0 0-5.567.802 19.67 19.67 0 0 0-4.912 2.242 21.813 21.813 0 0 0-4.192 3.451 21.516 21.516 0 0 0-3.275 4.417 22.385 22.385 0 0 0-2.128 5.137 21.322 21.322 0 0 0-.738 5.596 21.928 21.928 0 0 0 .738 5.709 22.202 22.202 0 0 0 2.08 5.153 21.257 21.257 0 0 0 3.274 4.384 20.883 20.883 0 0 0 4.257 3.42c1.6.965 3.325 1.707 5.125 2.208a20.43 20.43 0 0 0 5.699.785 21.28 21.28 0 0 0 7.057-1.194 18.489 18.489 0 0 0 5.927-3.419 17.637 17.637 0 0 0 4.175-5.35c1.066-2.19 1.647-3.795 1.704-6.23H159.57v-4.547h22.306c0-.058.072 3.017-.172 4.93" style="fill:#231f20;fill-opacity:1;fill-rule:nonzero;stroke:none;stroke-width:.066118"/><path d="M213.432 81.865v-5.716h-.132a9.254 9.254 0 0 1-2.078 2.735 12.615 12.615 0 0 1-2.914 2.047c-1.08.556-2.224.979-3.405 1.26-1.17.28-2.367.423-3.569.427a15.857 15.857 0 0 1-6.547-1.31 15.033 15.033 0 0 1-5.075-3.636 16.626 16.626 0 0 1-3.274-5.486 19.55 19.55 0 0 1-1.179-6.862 18.64 18.64 0 0 1 1.162-6.65 16.376 16.376 0 0 1 3.274-5.387 15.336 15.336 0 0 1 5.075-3.62 15.986 15.986 0 0 1 6.548-1.326 15.053 15.053 0 0 1 3.552.41 15.48 15.48 0 0 1 3.274 1.211 13.415 13.415 0 0 1 2.98 1.95c.87.76 1.62 1.65 2.226 2.635h.13V49.11h4.911v32.755zm.196-16.804a14.056 14.056 0 0 0-.835-4.912 12.63 12.63 0 0 0-2.407-3.996 11.456 11.456 0 0 0-3.764-2.719 11.95 11.95 0 0 0-4.912-1 11.57 11.57 0 0 0-4.91 1.016 11.057 11.057 0 0 0-3.684 2.8 12.21 12.21 0 0 0-2.324 4.112 15.725 15.725 0 0 0-.786 5.044 14.76 14.76 0 0 0 .835 4.913 13.626 13.626 0 0 0 2.406 4.16 11.967 11.967 0 0 0 3.782 2.882 11.176 11.176 0 0 0 4.91 1.08 10.75 10.75 0 0 0 8.66-4.045 12.956 12.956 0 0 0 2.26-4.29 16.85 16.85 0 0 0 .77-5.045" style="fill:#231f20;fill-opacity:1;fill-rule:nonzero;stroke:none;stroke-width:.066118"/><path d="M261.424 81.817V61.342a11.078 11.078 0 0 0-1.638-6.814 6.217 6.217 0 0 0-5.174-2.092 6.351 6.351 0 0 0-5.665 2.697 13.95 13.95 0 0 0-1.818 7.778v18.906h-4.912V62.404a25.088 25.088 0 0 0-.36-4.46 8.847 8.847 0 0 0-1.196-3.138 4.907 4.907 0 0 0-2.161-1.83 7.842 7.842 0 0 0-3.275-.605 6.07 6.07 0 0 0-5.452 2.909 16.526 16.526 0 0 0-1.883 8.823v17.714h-4.912V49.136h4.912v4.134h.13a9.03 9.03 0 0 1 3.44-3.644 10.319 10.319 0 0 1 5.206-1.259c1.95-.02 3.872.476 5.568 1.438a10.009 10.009 0 0 1 4.043 4.56 10.185 10.185 0 0 1 3.881-4.461 11.103 11.103 0 0 1 5.944-1.537 9.661 9.661 0 0 1 7.86 3.105 13.623 13.623 0 0 1 2.553 8.857v21.488h-5.091" style="fill:#231f20;fill-opacity:1;fill-rule:nonzero;stroke:none;stroke-width:.066118"/><path d="M275.405 66.228a14.302 14.302 0 0 0 1.031 5.153c.588 1.47 1.475 2.8 2.603 3.91a11.323 11.323 0 0 0 3.832 2.487c1.49.594 3.08.894 4.683.883a11.29 11.29 0 0 0 6.386-1.8 14.73 14.73 0 0 0 4.503-4.907l4.142 1.096a15.924 15.924 0 0 1-2.603 4.057 15.244 15.244 0 0 1-3.586 2.977 16.727 16.727 0 0 1-4.388 1.898 19.303 19.303 0 0 1-4.912.622 17.083 17.083 0 0 1-6.845-1.325 15.773 15.773 0 0 1-5.223-3.632 16.15 16.15 0 0 1-3.275-5.432 18.991 18.991 0 0 1-1.162-6.74 18.68 18.68 0 0 1 1.179-6.674 16.739 16.739 0 0 1 3.34-5.399 15.653 15.653 0 0 1 5.174-3.665 16.199 16.199 0 0 1 6.681-1.341 17.398 17.398 0 0 1 6.91 1.292A14.157 14.157 0 0 1 299 53.337a15.931 15.931 0 0 1 3.176 5.627 22.388 22.388 0 0 1 1.032 7.296zm21.712-7.624a11.776 11.776 0 0 0-2.195-3.354 9.173 9.173 0 0 0-3.274-2.208 12.076 12.076 0 0 0-4.618-.801 11.47 11.47 0 0 0-4.388.817 11.042 11.042 0 0 0-3.487 2.225 12.053 12.053 0 0 0-2.408 3.272 12.602 12.602 0 0 0-1.13 4.155h22.76a18.326 18.326 0 0 0-1.26-4.106" style="fill:#231f20;fill-opacity:1;fill-rule:nonzero;stroke:none;stroke-width:.066118"/><path d="m360.115 81.85-7.63-39.655h-.13L335.701 83.21h-1.228L318.1 42.195h-.147l-7.762 39.656h-5.207l10.512-52.547h2.735l17.045 42.699 17.258-42.699h2.784l10.25 52.547h-5.453" style="fill:#231f20;fill-opacity:1;fill-rule:nonzero;stroke:none;stroke-width:.066118"/><path d="M395.377 81.867v-5.716h-.13a9.248 9.248 0 0 1-2.08 2.735c-.87.817-1.85 1.506-2.913 2.048a15.15 15.15 0 0 1-3.405 1.26c-3.38.786-6.923.477-10.117-.884a15.028 15.028 0 0 1-5.074-3.636 16.627 16.627 0 0 1-3.274-5.486 19.56 19.56 0 0 1-1.179-6.863 18.63 18.63 0 0 1 1.163-6.65 16.388 16.388 0 0 1 3.273-5.388 15.339 15.339 0 0 1 5.075-3.62 15.973 15.973 0 0 1 6.548-1.326 15.043 15.043 0 0 1 3.552.41 15.45 15.45 0 0 1 3.274 1.211 13.405 13.405 0 0 1 2.865 1.95c.87.76 1.621 1.65 2.226 2.636h.131V49.11h4.911v32.757zm.197-16.804a14.058 14.058 0 0 0-.835-4.913 12.65 12.65 0 0 0-2.324-3.948 11.46 11.46 0 0 0-3.765-2.718 11.931 11.931 0 0 0-4.911-1 11.563 11.563 0 0 0-4.912 1.016 11.055 11.055 0 0 0-3.699 2.751 12.21 12.21 0 0 0-2.357 4.111 15.725 15.725 0 0 0-.786 5.045 14.77 14.77 0 0 0 .835 4.914 13.623 13.623 0 0 0 2.407 4.16 11.963 11.963 0 0 0 3.781 2.882 11.168 11.168 0 0 0 4.91 1.08c1.729.04 3.44-.337 4.994-1.096a11.108 11.108 0 0 0 3.667-2.948 12.957 12.957 0 0 0 2.258-4.291c.501-1.635.75-3.336.737-5.045" style="fill:#231f20;fill-opacity:1;fill-rule:nonzero;stroke:none;stroke-width:.066118"/><path d="m424.987 81.866-13.84-15.955-1.425 1.293v14.728h-4.913V25.754h4.913v36.803l13.971-13.419h6.273L414.8 63.457l16.378 18.409h-6.19" style="fill:#231f20;fill-opacity:1;fill-rule:nonzero;stroke:none;stroke-width:.066118"/><path d="M435.026 66.228a13.642 13.642 0 0 0 1.033 5.153c.587 1.47 1.474 2.8 2.603 3.91a11.317 11.317 0 0 0 3.831 2.487 12.35 12.35 0 0 0 4.667.883 11.47 11.47 0 0 0 6.402-1.8 14.723 14.723 0 0 0 4.487-4.907l4.143 1.096a15.48 15.48 0 0 1-6.19 7.034 16.515 16.515 0 0 1-4.323 1.898 19.193 19.193 0 0 1-4.912.622 16.957 16.957 0 0 1-6.828-1.325 15.448 15.448 0 0 1-5.223-3.632 15.9 15.9 0 0 1-3.357-5.432 18.981 18.981 0 0 1-1.179-6.74 18.34 18.34 0 0 1 1.195-6.674 16.73 16.73 0 0 1 3.275-5.432 15.484 15.484 0 0 1 5.174-3.664 16.1 16.1 0 0 1 6.665-1.342 17.352 17.352 0 0 1 6.91 1.292 14.352 14.352 0 0 1 5.141 3.649 15.903 15.903 0 0 1 3.16 5.628 22.893 22.893 0 0 1 1.048 7.296zm21.696-7.624a11.458 11.458 0 0 0-2.193-3.354 9.263 9.263 0 0 0-3.276-2.208 12.21 12.21 0 0 0-4.633-.801 11.466 11.466 0 0 0-4.372.817 10.866 10.866 0 0 0-3.488 2.225 11.45 11.45 0 0 0-2.407 3.272 12.618 12.618 0 0 0-1.146 4.155h22.76a17.516 17.516 0 0 0-1.245-4.106" style="fill:#231f20;fill-opacity:1;fill-rule:nonzero;stroke:none;stroke-width:.066118"/><path d="M479.956 53.273a9.048 9.048 0 0 0-1.882-.196 5.27 5.27 0 0 0-4.81 2.977 19.446 19.446 0 0 0-1.637 9.275v16.488h-4.908V49.102h4.908v4.466h.131a7.835 7.835 0 0 1 7.74-5.104c.55 0 1.1.065 1.636.196a10.18 10.18 0 0 1 1.636.507l-1.08 4.76a6.296 6.296 0 0 0-1.734-.654" style="fill:#231f20;fill-opacity:1;fill-rule:nonzero;stroke:none;stroke-width:.066118"/><path d="M486.211 33.41v8.853h-1.004v-8.852h-2.404v-.893h5.813v.893h-2.405" style="fill:#231f20;fill-opacity:1;fill-rule:nonzero;stroke:none;stroke-width:.066118"/><path d="m499.006 42.263-1.421-7.37-3.1 7.37h-.223l-3.066-7.37-1.456 7.37h-1.01l1.952-9.745h.497l3.186 7.89 3.203-7.89h.53L500 42.263h-.994" style="fill:#231f20;fill-opacity:1;fill-rule:nonzero;stroke:none;stroke-width:.066118"/></svg>