<?xml version="1.0" encoding="UTF-8" standalone="no"?>
<svg
   xmlns:dc="http://purl.org/dc/elements/1.1/"
   xmlns:cc="http://creativecommons.org/ns#"
   xmlns:rdf="http://www.w3.org/1999/02/22-rdf-syntax-ns#"
   xmlns:svg="http://www.w3.org/2000/svg"
   xmlns="http://www.w3.org/2000/svg"
   xmlns:sodipodi="http://sodipodi.sourceforge.net/DTD/sodipodi-0.dtd"
   xmlns:inkscape="http://www.inkscape.org/namespaces/inkscape"
   version="1"
   viewBox="0 0 675 150"
   id="svg8"
   sodipodi:docname="rpgmaker-vector10.svg"
   inkscape:version="0.92.3 (2405546, 2018-03-11)">
  <metadata
     id="metadata14">
    <rdf:RDF>
      <cc:Work
         rdf:about="">
        <dc:format>image/svg+xml</dc:format>
        <dc:type
           rdf:resource="http://purl.org/dc/dcmitype/StillImage" />
      </cc:Work>
    </rdf:RDF>
  </metadata>
  <defs
     id="defs12" />
  <sodipodi:namedview
     pagecolor="#ffffff"
     bordercolor="#666666"
     borderopacity="1"
     objecttolerance="10"
     gridtolerance="10"
     guidetolerance="10"
     inkscape:pageopacity="0"
     inkscape:pageshadow="2"
     inkscape:window-width="1920"
     inkscape:window-height="1017"
     id="namedview10"
     showgrid="false"
     inkscape:zoom="1.4917334"
     inkscape:cx="407.36054"
     inkscape:cy="112.81787"
     inkscape:window-x="-8"
     inkscape:window-y="-8"
     inkscape:window-maximized="1"
     inkscape:current-layer="svg8" />
  <path
     fill="#FC0"
     d="M31.9 104.9h3.7l7.7 33.9 7.9-33.9h3.7l1 39h-3l-.9-31-7.5 31.1h-2.4l-7.4-31-.7 31h-3l.9-39.1zM67.3 104.9h3.9l8.3 39h-3.6L74 133.4h-9.3l-2 10.5h-3.6l8.2-39zm6.1 25.9l-4.1-21.1-4.1 21.1h8.2zM82.9 104.9h3.7v20.6L97 104.9h3.5l-8 16.8 9.7 22.3h-3.6L90 124.5l-3.5 6.4V144h-3.7v-39.1zM105.1 104.9h14.1v2.8h-10.4v14.6h8.5v2.7h-8.5v16.1h10.5v2.7h-14.2v-38.9zM138.6 131l-8.8-26.1h3.6l7 21.7 6.7-21.7h3.6l-8.6 26.1v13h-3.6v-13zM154.6 141.3c-1.5-2.1-2.3-5-2.3-8.9v-16.2c0-3.8.8-6.7 2.3-8.7 1.5-2 4.1-3 7.8-3 3.6 0 6.1 1 7.7 3s2.3 4.9 2.3 8.7v16.2c0 3.8-.8 6.8-2.3 8.8-1.5 2.1-4.1 3.1-7.7 3.1-3.6.1-6.2-.9-7.8-3zm12.7-1.9c.9-1.4 1.3-3.4 1.3-6.1v-17.7c0-2.7-.4-4.7-1.3-6.1-.9-1.3-2.5-2-4.9-2-2.4 0-4.1.7-5 2-.9 1.3-1.3 3.4-1.3 6.1v17.7c0 2.7.4 4.8 1.3 6.2.9 1.4 2.6 2.1 5 2.1 2.4-.1 4-.8 4.9-2.2zM178.5 141.6c-1.4-1.9-2.2-4.7-2.2-8.3v-28.4h3.6v28.5c0 2.6.5 4.6 1.4 6 .9 1.4 2.6 2.1 5 2.1 2.3 0 4-.7 5-2.1 1-1.4 1.4-3.4 1.4-6v-28.5h3.5v28.4c0 3.5-.7 6.3-2.2 8.2-1.5 1.9-4.1 2.9-7.7 2.9-3.8 0-6.4-.9-7.8-2.8zM200.6 104.9h8.8c3.5 0 6 .8 7.5 2.5s2.2 4.2 2.2 7.4c0 2.5-.4 4.5-1.2 6.1-.8 1.6-2.2 2.6-4.2 3l6 20h-3.6l-5.7-19.2h-6.1V144h-3.7v-39.1zm8.6 17.2c2.3 0 4-.6 4.9-1.7.9-1.2 1.4-3 1.4-5.5s-.4-4.4-1.3-5.5c-.9-1.1-2.5-1.7-4.9-1.7h-5.1v14.4h5zM234.8 141.3c-1.5-2.1-2.3-5-2.3-8.9v-16.2c0-3.8.8-6.7 2.3-8.7 1.5-2 4.1-3 7.8-3 3.6 0 6.1 1 7.7 3s2.3 4.9 2.3 8.7v16.2c0 3.8-.8 6.8-2.3 8.8-1.5 2.1-4.1 3.1-7.7 3.1-3.7.1-6.3-.9-7.8-3zm12.6-1.9c.9-1.4 1.3-3.4 1.3-6.1v-17.7c0-2.7-.4-4.7-1.3-6.1-.9-1.3-2.5-2-4.9-2-2.4 0-4.1.7-5 2-.9 1.3-1.3 3.4-1.3 6.1v17.7c0 2.7.4 4.8 1.3 6.2.9 1.4 2.6 2.1 5 2.1 2.4-.1 4-.8 4.9-2.2zM255.1 105h3.1l5.2 31.7 5.9-31.1h3l6 31.2 4.8-31.8h3.1l-6.3 39H277l-6.2-32.2-6.1 32.2h-3l-6.6-39zM289.7 104.9h2.7l12.4 30.3v-30.3h3.2v39h-2.6l-12.5-30.6V144h-3.2v-39.1zM322.8 104.9h8.8c3.5 0 6 .8 7.5 2.5s2.2 4.2 2.2 7.4c0 2.5-.4 4.5-1.2 6.1-.8 1.6-2.2 2.6-4.2 3l6 20h-3.6l-5.7-19.2h-6.1V144h-3.7v-39.1zm8.6 17.2c2.3 0 4-.6 4.9-1.7.9-1.2 1.4-3 1.4-5.5s-.4-4.4-1.3-5.5c-.9-1.1-2.5-1.7-4.9-1.7h-5.1v14.4h5zM347.3 141.3c-1.5-2.1-2.3-5-2.3-8.9v-16.2c0-3.8.8-6.7 2.3-8.7 1.5-2 4.1-3 7.8-3 3.6 0 6.1 1 7.7 3s2.3 4.9 2.3 8.7v16.2c0 3.8-.8 6.8-2.3 8.8-1.5 2.1-4.1 3.1-7.7 3.1-3.7.1-6.3-.9-7.8-3zm12.7-1.9c.9-1.4 1.3-3.4 1.3-6.1v-17.7c0-2.7-.4-4.7-1.3-6.1-.9-1.3-2.5-2-4.9-2-2.4 0-4.1.7-5 2-.9 1.3-1.3 3.4-1.3 6.1v17.7c0 2.7.5 4.8 1.3 6.2.9 1.4 2.6 2.1 5 2.1 2.4-.1 4-.8 4.9-2.2zM369.3 104.9h3.7v36.3h11v2.7h-14.7v-39zM386.9 104.9H401v2.8h-10.4v14.6h8.5v2.7h-8.5v16.1h10.5v2.7h-14.2v-38.9zM402.9 126.8h10.2v2.8h-10.2v-2.8zM416.9 104.9h9.3c3.3 0 5.7.9 7.1 2.7 1.4 1.8 2.1 4.4 2.1 7.7 0 3-.7 5.5-2.2 7.4-1.5 1.9-3.8 2.8-7 2.8h-5.7V144h-3.7v-39.1zm8.3 17.9c2.4 0 4.1-.6 5.1-1.7s1.5-3 1.5-5.8c0-2-.2-3.6-.6-4.7-.4-1.1-1-1.8-2-2.3-.9-.4-2.3-.7-4-.7h-4.7v15.1h4.7zM438.9 104.9h3.7v36.3h11.1v2.7H439v-39zM463.8 104.9h3.9l8.3 39h-3.6l-1.9-10.5h-9.3l-2 10.5h-3.6l8.2-39zm6.2 25.9l-4.1-21.1-4.1 21.1h8.2zM482.7 131l-8.8-26.1h3.6l7 21.7 6.7-21.7h3.6l-8.6 26.1v13h-3.6v-13zM498 104.9h3.7v39H498v-39zM506.3 104.9h2.7l12.4 30.3v-30.3h3.2v39H522l-12.5-30.6V144h-3.2v-39.1zM531 141.3c-1.5-2.1-2.2-5.2-2.2-9.2v-15.2c0-4 .7-7.1 2.2-9.2 1.4-2.1 4-3.1 7.7-3.1 3.4 0 5.8.9 7.3 2.8s2.2 4.7 2.2 8.4v1.3h-3.5v-1.3c0-2.9-.4-5-1.3-6.3s-2.4-2-4.7-2c-1.7 0-3 .4-3.9 1.1-.9.7-1.5 1.7-1.8 3-.3 1.3-.5 2.9-.5 4.8v16c0 3.1.4 5.3 1.3 6.8s2.5 2.2 4.9 2.2c2.3 0 3.9-.7 4.8-2.2.9-1.5 1.3-3.8 1.3-6.9v-4.6H539V125h9.2v19h-2.4l-.4-4.4c-.5 1.6-1.4 2.8-2.5 3.7-1.1.9-2.6 1.3-4.5 1.3-3.5-.1-6-1.2-7.4-3.3zM564 141.3c-1.5-2.1-2.2-5.2-2.2-9.2v-15.2c0-4 .7-7.1 2.2-9.2 1.4-2.1 4-3.1 7.7-3.1 3.4 0 5.8.9 7.3 2.8s2.2 4.7 2.2 8.4v1.3h-3.5v-1.3c0-2.9-.4-5-1.3-6.3s-2.4-2-4.7-2c-1.7 0-3 .4-3.9 1.1-.9.7-1.5 1.7-1.8 3-.3 1.3-.5 2.9-.5 4.8v16c0 3.1.4 5.3 1.3 6.8s2.5 2.2 4.9 2.2c2.3 0 3.9-.7 4.8-2.2.9-1.5 1.3-3.8 1.3-6.9v-4.6H572V125h9.2v19h-2.4l-.4-4.4c-.5 1.6-1.4 2.8-2.5 3.7-1.1.9-2.6 1.3-4.5 1.3-3.5-.1-6-1.2-7.4-3.3zM592.7 104.9h3.9l8.3 39h-3.6l-1.9-10.5H590l-2 10.5h-3.6l8.3-39zm6.1 25.9l-4.1-21.1-4.1 21.1h8.2zM609.1 104.9h3.7l7.7 33.9 7.9-33.9h3.7l1 39h-3l-.8-31.1-7.5 31.1h-2.4l-7.4-31-.8 31h-3l.9-39zM637.3 104.9h14.1v2.8H641v14.6h8.5v2.7H641v16.1h10.5v2.7h-14.2v-38.9zM656.5 141.6c-1.6-1.9-2.5-4.5-2.7-7.8l3.2-1c.3 2.8.9 4.9 1.9 6.4.9 1.5 2.5 2.2 4.7 2.2 3.7 0 5.5-1.9 5.5-5.6 0-1.6-.4-3-1.1-4.2-.8-1.2-2-2.6-3.6-4.2l-6.9-6.6c-1.2-1.2-2.1-2.4-2.7-3.7-.6-1.3-.9-2.7-.9-4.2 0-2.7.8-4.7 2.4-6.2 1.6-1.5 3.8-2.2 6.6-2.2 2.9 0 5 .8 6.6 2.3 1.5 1.5 2.4 4.1 2.7 7.6l-3.1.8c-.2-2.6-.7-4.6-1.6-5.9-.9-1.3-2.3-2-4.3-2-1.8 0-3.2.4-4.2 1.3s-1.6 2.1-1.6 3.9c0 1.1.2 2 .6 2.9.4.9 1.1 1.8 2.1 2.8l6.9 6.5c1.8 1.7 3.2 3.4 4.2 5.2s1.5 3.6 1.5 5.6c0 2.8-.8 5-2.5 6.6-1.6 1.5-3.8 2.3-6.5 2.3-3.3 0-5.6-.9-7.2-2.8zM132.3 53.7V90h-17.8V3.6h29.3c17.1 0 27 8.2 27 23.9 0 12.4-7.3 17.8-12 19.6 6.9 3.2 10.5 8.6 10.5 21.5V72c0 10.2.5 13.4 1.2 18h-17.2c-1.4-4-1.6-10.6-1.6-18.2v-3.2c0-11.4-2.9-14.9-13-14.9h-6.4zm0-13.4h7c9.8 0 13.7-3.7 13.7-12.1 0-7.2-3.7-11.2-11.9-11.2h-8.8v23.3zM176.7 3.6h28.7c15.5 0 27.3 8.6 27.3 26 0 17-10.7 25.7-28.5 25.7h-9.6V90h-17.9V3.6zM194.6 42h7.5c8.9 0 12.6-4 12.6-12.7 0-8.5-4.7-12.4-11.8-12.4h-8.4V42zM298 90h-13.6c-.4-2.7-.7-4.5-.8-7-4.4 7-11.2 8.5-18.4 8.5-19.3 0-26.6-15.5-26.6-44.1 0-31.9 11.8-45.2 31.9-45.2 25.7 0 27.1 20.4 27.4 25.5h-17.6c-.3-3.6-1.1-11.5-10.3-11.5-10.3 0-12.9 13.1-12.9 31.2 0 19.9 2.4 30.2 12.5 30.2 8.1 0 10.7-5.6 10.7-17.3v-5h-11.8V41.2H298V90z"
     id="path2" />
  <path
     d="M398.8 58.8c0-14.5.3-31.5.5-41.4h-.4c-3.2 16.7-7.7 44.6-13.5 72.7h-16c-4.3-26.5-9-56.1-11.9-72.9h-.5c.5 10.1 1 28 1 43V90h-16.3V3.6h26.7c4.4 23.3 8.1 45.7 9.9 58.6h.1c1.9-12.2 7.1-36.3 11.5-58.6h26V90h-17.1V58.8zM443.4 69.3L439.2 90h-17.9l21.3-86.4h23.2L487.3 90h-18.7l-4.2-20.7h-21zm17.9-14.4c-3.1-15.7-5.7-27.5-7.2-36h-.4c-1.1 8-3.9 20.5-7.1 36h14.7zM492.7 3.6h17.6v38c4.9-7.7 16.1-27.1 23.2-38h20.6l-23.5 33.5L554.5 90h-19.8l-16.3-39-8.2 10.8V90h-17.6V3.6zM607.7 52.2h-29.6v23.6h33.3L609.2 90h-48.8V3.6H609v14.5h-31v19.7h29.6v14.4zM633.4 53.7V90h-17.8V3.6h29.3c17.1 0 27 8.2 27 23.9 0 12.4-7.3 17.8-12 19.6 6.9 3.2 10.5 8.6 10.5 21.5V72c0 10.2.5 13.4 1.2 18h-17.2c-1.4-4-1.6-10.6-1.6-18.2v-3.2c0-11.4-2.9-14.9-13-14.9h-6.4zm0-13.4h7c9.8 0 13.7-3.7 13.7-12.1 0-7.2-3.7-11.2-11.9-11.2h-8.8v23.3zM0 57h30v30H0zM42 57h30v30H42z"
     id="path4"
     fill="#FFF"
     style="fill:#4d4d4d" />
  <path
     fill="#FC0"
     d="M47.79988 11.23006l28.977 7.764-7.764 28.977-28.977-7.764z"
     id="path6" />
</svg>
